HIERARCHY
ROOT Hips
{
    OFFSET   0.000000   0.000000   0.000000
    CHANNELS 6 Xposition Yposition Zposition Zrotation Xrotation Yrotation
    JOINT Chest
    {
        OFFSET   0.000000   8.007230   0.000000
        CHANNELS 3 Zrotation Xrotation Yrotation
        JOINT Chest2
        {
            OFFSET   0.000000  22.077100   0.000000
            CHANNELS 3 Zrotation Xrotation Yrotation
            JOINT Neck
            {
                OFFSET   0.000000  23.254700   0.000000
                CHANNELS 3 Zrotation Xrotation Yrotation
                JOINT Head
                {
                    OFFSET   0.000010  14.370000   1.956610
                    CHANNELS 3 Zrotation Xrotation Yrotation
                    End Site
                    {
                        OFFSET   0.000000  19.566000   0.000000
                    }
                }
            }
            JOINT LeftCollar
            {
                OFFSET   3.911900  19.017000  -0.467063
                CHANNELS 3 Zrotation Xrotation Yrotation
                JOINT LeftShoulder
                {
                    OFFSET  10.383700   0.000000   0.000000
                    CHANNELS 3 Zrotation Xrotation Yrotation
                    JOINT LeftElbow
                    {
                        OFFSET  26.662100   0.001671   0.000522
                        CHANNELS 3 Zrotation Xrotation Yrotation
                        JOINT LeftWrist
                        {
                            OFFSET  28.869000   0.000037  -0.000114
                            CHANNELS 3 Zrotation Xrotation Yrotation
                            JOINT LeftFinger0
                            {
                                OFFSET   2.044650  -2.323450   3.252850
                                CHANNELS 3 Zrotation Xrotation Yrotation
                                JOINT LeftFinger01
                                {
                                    OFFSET   3.088140   0.000000   0.000000
                                    CHANNELS 3 Zrotation Xrotation Yrotation
                                    JOINT LeftFinger02
                                    {
                                        OFFSET   2.639460   0.000000   0.000000
                                        CHANNELS 3 Zrotation Xrotation Yrotation
                                        End Site
                                        {
                                            OFFSET   2.582190   0.000000   0.000000
                                        }
                                    }
                                }
                            }
                            JOINT LeftFinger1
                            {
                                OFFSET   8.364480   0.000000   3.252850
                                CHANNELS 3 Zrotation Xrotation Yrotation
                                JOINT LeftFinger11
                                {
                                    OFFSET   4.646930   0.000000   0.000000
                                    CHANNELS 3 Zrotation Xrotation Yrotation
                                    JOINT LeftFinger12
                                    {
                                        OFFSET   2.323470   0.000000   0.000000
                                        CHANNELS 3 Zrotation Xrotation Yrotation
                                        End Site
                                        {
                                            OFFSET   2.273050   0.000000   0.000000
                                        }
                                    }
                                }
                            }
                            JOINT LeftFinger2
                            {
                                OFFSET   8.364490   0.000016   1.078090
                                CHANNELS 3 Zrotation Xrotation Yrotation
                                JOINT LeftFinger21
                                {
                                    OFFSET   5.111620   0.000000   0.000000
                                    CHANNELS 3 Zrotation Xrotation Yrotation
                                    JOINT LeftFinger22
                                    {
                                        OFFSET   2.788150   0.000013   0.000000
                                        CHANNELS 3 Zrotation Xrotation Yrotation
                                        End Site
                                        {
                                            OFFSET   2.727660   0.000000   0.000000
                                        }
                                    }
                                }
                            }
                            JOINT LeftFinger3
                            {
                                OFFSET   7.899780   0.000016  -1.078090
                                CHANNELS 3 Zrotation Xrotation Yrotation
                                JOINT LeftFinger31
                                {
                                    OFFSET   4.646930   0.000000   0.000000
                                    CHANNELS 3 Zrotation Xrotation Yrotation
                                    JOINT LeftFinger32
                                    {
                                        OFFSET   2.323470   0.000000   0.000000
                                        CHANNELS 3 Zrotation Xrotation Yrotation
                                        End Site
                                        {
                                            OFFSET   2.273050   0.000000   0.000000
                                        }
                                    }
                                }
                            }
                            JOINT LeftFinger4
                            {
                                OFFSET   7.435080   0.000000  -3.252850
                                CHANNELS 3 Zrotation Xrotation Yrotation
                                JOINT LeftFinger41
                                {
                                    OFFSET   3.717550   0.000000   0.000000
                                    CHANNELS 3 Zrotation Xrotation Yrotation
                                    JOINT LeftFinger42
                                    {
                                        OFFSET   1.858760   0.000000   0.000000
                                        CHANNELS 3 Zrotation Xrotation Yrotation
                                        End Site
                                        {
                                            OFFSET   1.818440   0.000000   0.000000
                                        }
                                    }
                                }
                            }
                        }
                    }
                }
            }
            JOINT RightCollar
            {
                OFFSET  -3.911900  19.017000  -0.467064
                CHANNELS 3 Zrotation Xrotation Yrotation
                JOINT RightShoulder
                {
                    OFFSET -10.383700   0.000000   0.000000
                    CHANNELS 3 Zrotation Xrotation Yrotation
                    JOINT RightElbow
                    {
                        OFFSET -26.662100   0.001633   0.000260
                        CHANNELS 3 Zrotation Xrotation Yrotation
                        JOINT RightWrist
                        {
                            OFFSET -28.869000  -0.000045  -0.000080
                            CHANNELS 3 Zrotation Xrotation Yrotation
                            JOINT RightFinger0
                            {
                                OFFSET  -2.044660  -2.323490   3.252850
                                CHANNELS 3 Zrotation Xrotation Yrotation
                                JOINT RightFinger01
                                {
                                    OFFSET  -3.088140   0.000000   0.000000
                                    CHANNELS 3 Zrotation Xrotation Yrotation
                                    JOINT RightFinger02
                                    {
                                        OFFSET  -2.639450   0.000000   0.000000
                                        CHANNELS 3 Zrotation Xrotation Yrotation
                                        End Site
                                        {
                                            OFFSET  -2.582190   0.000000   0.000000
                                        }
                                    }
                                }
                            }
                            JOINT RightFinger1
                            {
                                OFFSET  -8.364480   0.000000   3.252850
                                CHANNELS 3 Zrotation Xrotation Yrotation
                                JOINT RightFinger11
                                {
                                    OFFSET  -4.646920   0.000000   0.000000
                                    CHANNELS 3 Zrotation Xrotation Yrotation
                                    JOINT RightFinger12
                                    {
                                        OFFSET  -2.323470   0.000000   0.000000
                                        CHANNELS 3 Zrotation Xrotation Yrotation
                                        End Site
                                        {
                                            OFFSET  -2.273050   0.000000   0.000000
                                        }
                                    }
                                }
                            }
                            JOINT RightFinger2
                            {
                                OFFSET  -8.364480   0.000000   1.078090
                                CHANNELS 3 Zrotation Xrotation Yrotation
                                JOINT RightFinger21
                                {
                                    OFFSET  -5.111610   0.000000   0.000000
                                    CHANNELS 3 Zrotation Xrotation Yrotation
                                    JOINT RightFinger22
                                    {
                                        OFFSET  -2.788160   0.000000   0.000000
                                        CHANNELS 3 Zrotation Xrotation Yrotation
                                        End Site
                                        {
                                            OFFSET  -2.727660   0.000000   0.000000
                                        }
                                    }
                                }
                            }
                            JOINT RightFinger3
                            {
                                OFFSET  -7.899780   0.000000  -1.078090
                                CHANNELS 3 Zrotation Xrotation Yrotation
                                JOINT RightFinger31
                                {
                                    OFFSET  -4.646930   0.000000   0.000000
                                    CHANNELS 3 Zrotation Xrotation Yrotation
                                    JOINT RightFinger32
                                    {
                                        OFFSET  -2.323470   0.000000   0.000000
                                        CHANNELS 3 Zrotation Xrotation Yrotation
                                        End Site
                                        {
                                            OFFSET  -2.273050   0.000000   0.000000
                                        }
                                    }
                                }
                            }
                            JOINT RightFinger4
                            {
                                OFFSET  -7.435090   0.000000  -3.252850
                                CHANNELS 3 Zrotation Xrotation Yrotation
                                JOINT RightFinger41
                                {
                                    OFFSET  -3.717550   0.000000   0.000000
                                    CHANNELS 3 Zrotation Xrotation Yrotation
                                    JOINT RightFinger42
                                    {
                                        OFFSET  -1.858760   0.000000   0.000000
                                        CHANNELS 3 Zrotation Xrotation Yrotation
                                        End Site
                                        {
                                            OFFSET  -1.818440   0.000000   0.000000
                                        }
                                    }
                                }
                            }
                        }
                    }
                }
            }
        }
    }
    JOINT LeftHip
    {
        OFFSET   9.782990   0.000000   0.000000
        CHANNELS 3 Zrotation Xrotation Yrotation
        JOINT LeftKnee
        {
            OFFSET  -0.000063 -41.789100   0.001657
            CHANNELS 3 Zrotation Xrotation Yrotation
            JOINT LeftAnkle
            {
                OFFSET   0.000078 -41.133200  -0.000113
                CHANNELS 3 Zrotation Xrotation Yrotation
                JOINT LeftToe
                {
                    OFFSET   0.000000  -6.358970  14.674500
                    CHANNELS 3 Zrotation Xrotation Yrotation
                    End Site
                    {
                        OFFSET   0.000000   0.000000   3.913200
                    }
                }
            }
        }
    }
    JOINT RightHip
    {
        OFFSET  -9.782990   0.000000   0.000000
        CHANNELS 3 Zrotation Xrotation Yrotation
        JOINT RightKnee
        {
            OFFSET   0.000053 -41.789200   0.000277
            CHANNELS 3 Zrotation Xrotation Yrotation
            JOINT RightAnkle
            {
                OFFSET   0.000030 -41.133200  -0.000150
                CHANNELS 3 Zrotation Xrotation Yrotation
                JOINT RightToe
                {
                    OFFSET   0.000000  -6.358960  14.674500
                    CHANNELS 3 Zrotation Xrotation Yrotation
                    End Site
                    {
                        OFFSET   0.000000   0.000000   3.913200
                    }
                }
            }
        }
    }
}
MOTION
Frames: 5
Frame Time:   0.016667
 -1.682520  89.567200  -3.205240  -2.813370  -8.179700  -1.350640   0.542234   5.083550   0.896525   1.010190  10.174900   1.754930   0.297380  -0.423090  -0.008460   0.488637  -0.857855  -0.627369  -4.163940  -0.997978   0.255266 -75.598900  12.624700  -1.053250  -0.358899  -1.043070 -18.317600  11.978000  -2.392130   3.186390  38.819600  31.415200 -54.703900 -32.458900   0.000000   0.000000 -11.234400   0.001547  -0.000000 -32.046700   4.448050  -7.066390 -26.444700   0.008202   0.001569 -18.511300   0.011865   0.000463 -28.782200  -1.185660   2.161830 -42.767300  -0.001244   0.001376 -28.483100  -0.000399   0.001660 -28.730500  -1.183790   2.162880 -40.197300   0.001514   0.006952 -26.764100  -0.004578   0.001144 -35.114800  -1.419390   2.017490 -52.706200   0.000576   0.000000 -35.104200  -0.001273  -0.000000   8.931600   1.068760   6.875310  71.085400   3.816130  -8.172790  -0.286427  -8.262690  13.436600 -11.988100  -4.702700   5.937300 -38.656300  37.710400  72.837500  34.207500   0.000383  -0.000206  12.103800   0.001478   0.011493  31.397000  10.236400  16.233700  26.886100  -0.001285   0.006297  18.820800   0.001395   0.008095  32.419500   4.891460   7.659400  49.119900  -0.003148   0.002833  32.713900   0.002805  -0.007002  38.245200   2.827700   3.591100  54.218900  -0.001762  -0.003494  36.755700   0.012265  -0.001418  51.282200  -5.034050  -4.023650  77.188700   0.002802  -0.003390  51.407700   0.004022  -0.002840   2.951310   9.622040   4.244310   1.234130   0.089552   2.260220  -1.755600  -2.112430   1.847720  -0.000000   0.000000   0.000000   4.881320   6.226780   1.198430  -2.301030   5.530750  -5.010450  -0.094877  -4.623330  -1.490700   0.000000   0.000000   0.000000
 -1.677020  89.567200  -3.214530  -2.807540  -8.199280  -1.308010   0.542277   5.101470   0.898692   1.009960  10.210700   1.759100   0.305112  -0.416084  -0.008456   0.501335  -0.843649  -0.623333  -4.159990  -0.997129   0.250222 -75.579600  12.658400  -1.080370  -0.358919  -1.047620 -18.328500  11.993200  -2.392880   3.187150  38.818600  31.406800 -54.673000 -32.458900   0.000000   0.000035 -11.234400   0.001553   0.000000 -32.047000   4.448040  -7.061640 -26.444800   0.008206   0.001567 -18.511400   0.011866   0.000463 -28.782100  -1.185600   2.171140 -42.768600  -0.001244   0.001375 -28.484000  -0.000399   0.001661 -28.730400  -1.183720   2.172190 -40.201200   0.001515   0.006953 -26.769800  -0.004578   0.001143 -35.114300  -1.425510   2.026190 -52.706600   0.000576  -0.000000 -35.104200  -0.001273   0.000000   8.932290   1.064400   6.866970  71.087300   3.861880  -8.155790  -0.313072  -8.233270  13.493300 -11.944500  -4.736220   5.996120 -38.307000  37.614000  72.947600  34.499700   0.000393  -0.000207  12.249900   0.001456   0.011481  31.378000  10.289000  16.323400  26.883800  -0.001291   0.006297  18.819000   0.001395   0.008080  32.499800   4.891800   7.630020  49.239100  -0.003147   0.002851  32.793200   0.002729  -0.006969  38.240500   2.829660   3.591980  54.216800  -0.001795  -0.003422  36.753900   0.012319  -0.001396  51.314800  -5.047280  -4.029380  77.238700   0.002741  -0.003332  51.441000   0.004022  -0.002785   2.949430   9.647500   4.241590   1.235020   0.045905   2.254070  -1.756250  -2.072870   1.815200  -0.000000   0.000000   0.000000   4.881360   6.227090   1.196260  -2.300690   5.563440  -5.037770  -0.096125  -4.628470  -1.505110  -0.000000   0.000000  -0.000000
 -1.668590  89.567100  -3.228370  -2.797790  -8.236190  -1.235480   0.542102   5.133100   0.900879   1.008860  10.274000   1.763430   0.316629  -0.404078  -0.008444   0.520256  -0.819263  -0.610871  -4.152220  -0.994182   0.243985 -75.549900  12.722500  -1.130180  -0.359133  -1.068070 -18.344100  12.008800  -2.398180   3.187930  38.817600  31.398400 -54.642100 -32.458900   0.000000   0.000071 -11.234300   0.001558   0.000000 -32.047400   4.448040  -7.054010 -26.445400   0.008212   0.001565 -18.511800   0.011866   0.000465 -28.781900  -1.185510   2.180450 -42.777700  -0.001246   0.001374 -28.489900  -0.000399   0.001663 -28.730200  -1.183630   2.181500 -40.210900   0.001518   0.006957 -26.780400  -0.004578   0.001142 -35.113900  -1.431630   2.034890 -52.709000   0.000577  -0.000000 -35.104200  -0.001273   0.000000   8.933370   1.057290   6.854920  71.088200   3.940300  -8.124780  -0.368055  -8.166270  13.603100 -11.891700  -4.769380   6.094940 -37.636600  37.454900  73.304800  34.970800   0.000410  -0.000212  12.485400   0.001415   0.011459  31.340000  10.384100  16.488000  26.876900  -0.001310   0.006297  18.813800   0.001398   0.008039  32.580100   4.892130   7.600640  49.358200  -0.003144   0.002891  32.872500   0.002600  -0.006897  38.208300   2.836910   3.598120  54.213700  -0.001851  -0.003278  36.741600   0.012430  -0.001361  51.347400  -5.060510  -4.035110  77.288700   0.002640  -0.003236  51.474300   0.004023  -0.002693   2.947420   9.683860   4.234890   1.234450   0.002257   2.240260  -1.757560  -2.031060   1.764920  -0.000000   0.000000   0.000000   4.881690   6.229280   1.189800  -2.300590   5.609470  -5.085180  -0.098000  -4.636270  -1.526820  -0.000000   0.000000  -0.000000
 -1.663480  89.567000  -3.235970  -2.789780  -8.275740  -1.173680   0.540645   5.162760   0.900360   1.005440  10.333200   1.762440   0.322823  -0.394589  -0.008420   0.530441  -0.799859  -0.588568  -4.143260  -0.988257   0.242593 -75.532100  12.791800  -1.181430  -0.358782  -1.113960 -18.350100  12.009200  -2.425610   3.184330  38.814700  31.403400 -54.681100 -32.464000   0.000000   0.000069 -11.234100   0.001554  -0.000000 -32.063900   4.448070  -7.047230 -26.459300   0.008215   0.001565 -18.521500   0.011864   0.000476 -28.782000  -1.185480   2.173730 -42.810500  -0.001248   0.001376 -28.511700  -0.000401   0.001664 -28.730400  -1.183600   2.174770 -40.230700   0.001521   0.006962 -26.794000  -0.004578   0.001142 -35.125300  -1.427580   2.028360 -52.726900   0.000576  -0.000000 -35.115400  -0.001275   0.000000   8.934030   1.052750   6.848440  71.083700   4.009250  -8.092250  -0.428761  -8.083720  13.720400 -11.878700  -4.765920   6.174150 -36.854000  37.312300  74.003500  35.240100   0.000423  -0.000231  12.618800   0.001371   0.011437  31.285400  10.479300  16.664800  26.860600  -0.001345   0.006300  18.802400   0.001412   0.007974  32.388700   4.901140   7.670490  49.076100  -0.003138   0.002948  32.684700   0.002466  -0.006795  37.928200   2.855960   3.649260  54.211700  -0.001906  -0.003091  36.667300   0.012583  -0.001327  51.289600  -5.035520  -4.025410  77.199500   0.002538  -0.003139  51.414900   0.004024  -0.002601   2.950130   9.695500   4.222890   1.229940   0.026735   2.222580  -1.759320  -2.029580   1.733050  -0.000000   0.000000  -0.000000   4.882160   6.256090   1.177930  -2.303290   5.628010  -5.127340  -0.099052  -4.640990  -1.539200   0.000000   0.000000   0.000000
 -1.659080  89.566900  -3.241710  -2.781980  -8.318390  -1.111430   0.538656   5.193220   0.898960   1.001250  10.394100   1.759550   0.327649  -0.383089  -0.008387   0.538397  -0.776414  -0.559969  -4.133400  -0.981193   0.242394 -75.515700  12.867000  -1.234770  -0.360460  -1.170230 -18.355600  12.004000  -2.458000   3.172730  38.810600  31.411300 -54.740200 -32.471800   0.000000   0.000067 -11.234000   0.001545  -0.000000 -32.086200   4.448100  -7.043340 -26.476800   0.008220   0.001566 -18.533700   0.011861   0.000492 -28.782200  -1.185480   2.164560 -42.841000  -0.001251   0.001380 -28.532100  -0.000403   0.001665 -28.730600  -1.183600   2.165580 -40.244500   0.001525   0.006968 -26.802800  -0.004578   0.001143 -35.138200  -1.422040   2.019450 -52.744900   0.000576   0.000000 -35.128100  -0.001279   0.000000   8.934780   1.046850   6.845660  71.077200   4.077600  -8.060780  -0.513598  -7.962240  13.861800 -11.872900  -4.745910   6.257550 -36.083900  37.183600  74.799200  35.638500   0.000430  -0.000244  12.819300   0.001322   0.011413  31.245700  10.577200  16.833300  26.848900  -0.001389   0.006301  18.794300   0.001433   0.007893  32.197400   4.910140   7.740330  48.794000  -0.003131   0.003008  32.496800   0.002385  -0.006686  37.675600   2.869730   3.695140  54.210800  -0.001939  -0.002921  36.603600   0.012736  -0.001307  51.231900  -5.010520  -4.015710  77.110400   0.002477  -0.003081  51.355600   0.004025  -0.002546   2.955410   9.709250   4.212430   1.224070   0.051213   2.198880  -1.760930  -2.028100   1.705500   0.000000   0.000000  -0.000000   4.882500   6.300510   1.164210  -2.303180   5.637590  -5.171210  -0.099869  -4.644710  -1.549050   0.000000   0.000000   0.000000
